HIERARCHY
ROOT Hips
{
    OFFSET 0.000000 0.000000 0.000000
    CHANNELS 6 Xposition Yposition Zposition Zrotation Xrotation Yrotation
    JOINT Spine
    {
        OFFSET -0.000000 7.246840 0.000000
        CHANNELS 3 Zrotation Xrotation Yrotation
        JOINT Spine1
        {
            OFFSET -0.000000 20.289354 0.000000
            CHANNELS 3 Zrotation Xrotation Yrotation
            JOINT Neck
            {
                OFFSET -0.000000 20.206032 1.836912
                CHANNELS 3 Zrotation Xrotation Yrotation
                JOINT Head
                {
                    OFFSET -0.000000 12.372654 -1.767522
                    CHANNELS 3 Zrotation Xrotation Yrotation
                    End Site
                    {
                        OFFSET -0.000000 22.094025 0.000000
                    }
                }
            }
            JOINT LeftShoulder
            {
                OFFSET 3.465871 17.201674 -0.568930
                CHANNELS 3 Zrotation Xrotation Yrotation
                JOINT LeftArm
                {
                    OFFSET 14.070313 0.000000 0.000000
                    CHANNELS 3 Zrotation Xrotation Yrotation
                    JOINT LeftForeArm
                    {
                        OFFSET 26.549477 0.000000 0.000000
                        CHANNELS 3 Zrotation Xrotation Yrotation
                        JOINT LeftHand
                        {
                            OFFSET 18.880413 0.000000 0.000000
                            CHANNELS 3 Zrotation Xrotation Yrotation
                            End Site
                            {
                                OFFSET 13.256415 0.000000 0.000000
                            }
                        }
                    }
                }
            }
            JOINT RightShoulder
            {
                OFFSET -3.526370 17.201674 -0.568930
                CHANNELS 3 Zrotation Xrotation Yrotation
                JOINT RightArm
                {
                    OFFSET -14.070313 0.000000 0.000000
                    CHANNELS 3 Zrotation Xrotation Yrotation
                    JOINT RightForeArm
                    {
                        OFFSET -26.549477 0.000000 0.000000
                        CHANNELS 3 Zrotation Xrotation Yrotation
                        JOINT RightHand
                        {
                            OFFSET -18.880413 0.000000 0.000000
                            CHANNELS 3 Zrotation Xrotation Yrotation
                            End Site
                            {
                                OFFSET -13.256415 0.000000 0.000000
                            }
                        }
                    }
                }
            }
        }
    }
    JOINT LeftUpLeg
    {
        OFFSET 8.837609 0.000000 0.000000
        CHANNELS 3 Zrotation Xrotation Yrotation
        JOINT LeftLeg
        {
            OFFSET -0.000000 -41.345005 0.000000
            CHANNELS 3 Zrotation Xrotation Yrotation
            JOINT LeftFoot
            {
                OFFSET -0.000000 -35.500874 0.000000
                CHANNELS 3 Zrotation Xrotation Yrotation
                JOINT LeftToeBase
                {
                    OFFSET -0.000000 -5.744446 13.256415
                    CHANNELS 3 Zrotation Xrotation Yrotation
                    End Site
                    {
                        OFFSET -0.000000 0.000000 3.535044
                    }
                }
            }
        }
    }
    JOINT RightUpLeg
    {
        OFFSET -8.837609 0.000000 0.000000
        CHANNELS 3 Zrotation Xrotation Yrotation
        JOINT RightLeg
        {
            OFFSET -0.000000 -41.345005 0.000000
            CHANNELS 3 Zrotation Xrotation Yrotation
            JOINT RightFoot
            {
                OFFSET -0.000000 -35.500874 0.000000
                CHANNELS 3 Zrotation Xrotation Yrotation
                JOINT RightToeBase
                {
                    OFFSET -0.000000 -5.744446 13.256415
                    CHANNELS 3 Zrotation Xrotation Yrotation
                    End Site
                    {
                        OFFSET -0.000000 0.000000 3.535044
                    }
                }
            }
        }
    }
}
MOTION
Frames:    9
Frame Time:    0.010000
-4.016051    82.547363    138.515930    4.264669    0.159913    -5.101398    0.522650    -13.257832    -1.758385    -9.588445    14.035738    -0.636045    9.181845    29.172318    -10.191051    1.302827    -13.602071    -9.098152    11.972926    -9.225569    1.316269    3.741354    61.889393    -94.778755    15.707111    -16.621765    -89.887321    -21.349161    8.903344    -49.242123    -3.320614    -11.074324    30.914518    30.081432    56.576054    53.278393    -11.669834    -17.009783    109.752579    10.222152    1.178759    18.569454    -4.519198    7.922530    -1.270259    -1.048997    -7.706171    -3.169610    8.584968    -0.167606    -2.679140    -0.890649    -1.014763    1.254488    -10.725889    4.846605    11.011839    7.710773    -14.042996    -3.837009    -9.332487    4.309525    -9.163009    -3.337805    4.474247    5.712603    
-4.021877    82.552025    138.527496    4.273932    0.186136    -4.650319    -0.937333    -12.259038    -0.603642    -7.820536    11.875553    0.311689    13.724893    31.546450    -12.209234    -1.830132    -15.585793    -11.107285    11.751333    -8.176341    -2.411572    0.202593    62.252216    -92.469887    15.707111    -16.621765    -89.887321    -21.349161    8.903344    -49.242123    -2.315376    -9.204823    28.148903    27.789627    57.283371    53.267052    -11.669834    -17.009783    109.752579    10.222152    1.178759    18.569454    -4.477097    7.914121    -1.439765    -1.061459    -7.756217    -3.389519    8.532152    -0.108965    -2.724519    -0.853136    -0.986725    1.201448    -10.700036    4.896262    10.558105    7.746401    -13.861655    -3.568096    -9.551922    4.238985    -9.162394    -3.337805    4.474247    5.712603    
-4.024498    82.550636    138.541061    4.279023    0.230554    -4.212345    0.675385    -13.344207    -1.507293    -9.763181    13.979053    -0.386437    9.842244    30.637672    -10.710216    0.431414    -15.777880    -9.619139    11.924227    -9.276570    1.343030    4.013961    61.976845    -95.029015    15.707111    -16.621765    -89.887321    -21.349161    8.903344    -49.242123    -3.280607    -11.010675    31.018873    30.003637    56.465267    53.284203    -11.669834    -17.009783    109.752579    10.222152    1.178759    18.569454    -4.444109    7.892769    -1.511487    -1.041676    -7.818618    -3.637684    8.443397    -0.053697    -2.827426    -0.830856    -0.983729    1.170051    -10.665354    4.933551    10.117322    7.810977    -13.773606    -3.479578    -10.049100    4.331338    -9.336384    -3.337805    4.474247    5.712603    
-4.032432    82.553009    138.552505    4.283921    0.272428    -3.774481    0.662205    -13.336079    -1.351876    -9.713774    13.892397    -0.242988    9.180142    29.319088    -9.392054    0.183913    -13.816483    -8.539827    11.554009    -9.116707    1.464782    4.284830    61.629440    -95.070221    15.707111    -16.621765    -89.887321    -21.349161    8.903344    -49.242123    -3.256639    -11.153952    30.914499    30.187979    56.628845    53.105270    -11.669834    -17.009783    109.752579    10.222152    1.178759    18.569454    -4.401750    7.870339    -1.615368    -1.046964    -7.859469    -3.978019    8.401802    0.005054    -2.800486    -0.848288    -1.013094    1.194812    -10.632897    4.973944    9.676821    7.855575    -13.627996    -3.096849    -10.226189    4.311845    -9.547068    -3.337805    4.474247    5.712603    
-4.037955    82.556137    138.560776    4.281368    0.301101    -3.322199    0.740004    -13.392994    -1.254114    -9.785264    13.923863    -0.143196    10.139680    30.743914    -10.546822    -0.662817    -16.014120    -9.696826    11.507138    -9.113543    1.531780    4.528854    61.575851    -95.230309    15.707111    -16.621765    -89.887321    -21.349161    8.903344    -49.242123    -3.389053    -11.637676    30.581573    30.096153    57.026276    53.643230    -11.669834    -17.009783    109.752579    10.222152    1.178759    18.569454    -4.347941    7.846724    -1.747942    -1.051416    -7.899399    -4.151994    8.338685    0.053599    -2.939512    -0.840935    -1.016397    1.184479    -10.605322    5.048107    9.227132    7.911896    -13.532640    -2.983136    -10.406518    4.274850    -9.591254    -3.337805    4.474247    5.712603    
-4.042490    82.555115    138.578552    4.289247    0.319374    -2.894896    -0.733502    -12.332833    -0.103550    -8.037814    11.653391    0.794412    13.096024    32.589031    -10.199217    -2.676332    -16.894880    -9.232248    11.332776    -7.842385    -2.089150    1.243882    61.788116    -93.215370    15.707111    -16.621765    -89.887321    -21.349161    8.903344    -49.242123    -2.351823    -9.836175    27.867315    27.982119    57.876225    53.490490    -11.669834    -17.009783    109.752579    10.222152    1.178759    18.569454    -4.303615    7.845530    -1.899994    -1.065207    -7.880248    -4.940084    8.280264    0.116931    -2.398618    -0.807605    -0.998452    1.137411    -10.585438    5.125192    8.804409    7.960701    -13.429335    -2.685843    -10.640775    4.297459    -9.705096    -3.337805    4.474247    5.712603    
-4.026555    82.549690    138.609497    4.302253    0.354865    -2.424683    0.848426    -13.433939    -1.018337    -9.911205    13.824941    0.086314    8.846023    30.876476    -8.242586    -0.228718    -16.024267    -7.355544    11.456519    -9.025692    1.521354    4.404818    61.566578    -95.150444    15.707111    -16.621765    -89.887321    -21.349161    8.903344    -49.242123    -3.115732    -12.002029    31.071569    31.164021    57.422939    52.305164    -11.669834    -17.009783    109.752579    10.222152    1.178759    18.569454    -4.274484    7.844854    -2.145573    -1.059290    -7.931642    -5.214929    8.224529    0.178614    -2.330717    -0.815653    -1.030520    1.148970    -10.580987    5.198799    8.334087    8.012869    -13.288291    -2.332717    -11.120137    4.363350    -9.899040    -3.337805    4.474247    5.712603    
-4.029752    82.546875    138.628418    4.315365    0.378956    -1.997113    0.874359    -13.432975    -0.914770    -9.948874    13.754480    0.185239    9.236657    31.814880    -8.610736    -0.663564    -17.267033    -7.718069    11.371922    -9.060792    1.524144    4.338901    61.591228    -95.033371    15.707111    -16.621765    -89.887321    -21.349161    8.903344    -49.242123    -3.102206    -11.973589    31.101105    31.294655    57.401859    52.144531    -11.669834    -17.009783    109.752579    10.222152    1.178759    18.569454    -4.246049    7.832712    -2.282777    -1.052149    -7.917031    -5.815244    8.133265    0.206767    -1.994357    -0.769401    -1.015077    1.083717    -10.558053    5.247314    7.904665    8.046328    -13.136790    -2.187544    -11.626205    4.420869    -9.914484    -3.337805    4.474247    5.712603    
-4.037354    82.547928    138.648178    4.324488    0.390688    -1.576969    0.940468    -13.496012    -0.803191    -10.096976    13.862821    0.316182    9.581713    32.539829    -8.894080    -0.943775    -18.420321    -7.975415    11.514168    -9.148887    1.583559    1.796124    61.744877    -93.120377    15.707111    -16.621765    -89.887321    -21.349161    8.903344    -49.242123    -3.115446    -11.972520    31.022243    31.210985    57.288193    52.287815    -11.669834    -17.009783    109.752579    10.222152    1.178759    18.569454    -4.200312    7.836804    -2.422341    -1.063692    -7.930088    -6.214336    8.087199    0.238369    -1.852746    -0.760889    -1.032304    1.071841    -10.511071    5.303338    7.488859    8.039951    -12.986612    -2.138654    -11.875072    4.384967    -9.813616    -3.337805    4.474247    5.712603    
